# xmcd
#
# Track frame offsets: 
#        150
#        9683
#        31859
#        45286
#        83936
#        104581
#        120853
#        135563
#        159079
#        173259
#
# Disc length: 2492 seconds
#
# Revision: 0
# Processed by: cddbd v1.5.1PL2 Copyright (c) Steve Scherf et al.
# Submitted via: ExactAudioCopy v0.95b3
#
DISCID=6309ba0a
DTITLE=Various Artist - The Open Road
DYEAR=2002
DGENRE=Country
TTITLE0=When Will I Be loved - Linda Ronstadt
TTITLE1=Proud Mary - Ike and Tina Turner
TTITLE2=Get Your Kicks on Route 66 - The King Cole Trio
TTITLE3=American Pie - Don McLean
TTITLE4=The Weight - The Band
TTITLE5=No Rain - Blind Melon
TTITLE6=Right Back Where We Started From - Maxine Nightingale
TTITLE7=One Love - Pat Benatar
TTITLE8=Drive South - Suzy Boggus
TTITLE9=Bad, Bad Leroy Brown - Jim Croce
EXTD=
EXTT0=
EXTT1=
EXTT2=
EXTT3=
EXTT4=
EXTT5=
EXTT6=
EXTT7=
EXTT8=
EXTT9=
PLAYORDER=
